<?xml version="1.0" standalone="no"?>
<!DOCTYPE svg PUBLIC "-//W3C//DTD SVG 20010904//EN"
 "http://www.w3.org/TR/2001/REC-SVG-20010904/DTD/svg10.dtd">
<svg version="1.0" xmlns="http://www.w3.org/2000/svg"
 width="512.000000pt" height="340.000000pt" viewBox="0 0 512.000000 340.000000"
 preserveAspectRatio="xMidYMid meet">
<metadata>
Created by potrace 1.14, written by Peter Selinger 2001-2017
</metadata>
<g transform="translate(0.000000,340.000000) scale(0.100000,-0.100000)"
fill="#000000" stroke="none">
<path d="M1965 3189 c-510 -143 -1168 -361 -1213 -402 -12 -11 -22 -31 -22
-44 0 -29 63 -155 101 -204 16 -20 29 -40 29 -44 0 -8 112 -199 192 -328 26
-43 48 -81 48 -86 0 -5 7 -14 15 -21 8 -7 13 -16 10 -20 -3 -5 -2 -10 3 -12
11 -5 161 -235 235 -363 7 -11 33 -53 60 -93 26 -40 47 -78 47 -85 0 -11 -13
8 -117 170 -22 35 -44 59 -48 55 -5 -4 -5 -2 -2 4 4 7 0 14 -8 18 -8 3 -15 15
-15 26 0 11 -4 20 -9 20 -5 0 -12 11 -15 25 -4 14 -11 23 -16 20 -6 -3 -10 3
-10 15 0 12 -4 19 -9 15 -8 -4 -21 19 -26 45 -3 18 -42 80 -65 105 -16 17 -45
62 -66 100 -20 39 -40 72 -43 75 -10 8 -146 249 -171 303 -12 26 -26 47 -31
47 -21 0 61 -155 250 -470 57 -96 104 -180 104 -187 0 -7 4 -10 9 -7 4 3 8 1
8 -5 0 -5 14 -33 32 -61 28 -46 30 -54 19 -73 -28 -44 -112 -207 -108 -207 3
0 31 47 62 105 52 97 75 130 75 106 0 -9 106 -179 194 -311 21 -32 34 -62 31
-71 -3 -10 -1 -20 4 -24 7 -3 8 0 5 9 -15 39 15 8 61 -62 62 -96 60 -91 33
-86 -14 2 -11 0 7 -7 22 -8 47 -37 95 -111 36 -55 71 -110 78 -124 7 -13 17
-24 23 -24 5 0 9 -4 9 -9 0 -5 40 -69 88 -143 49 -73 106 -160 127 -193 22
-33 42 -62 45 -65 3 -3 11 -17 19 -32 8 -16 18 -28 23 -28 4 0 8 -6 8 -13 0
-7 8 -22 18 -33 9 -10 23 -31 31 -46 8 -16 18 -28 23 -28 4 0 8 -5 8 -11 0
-22 74 -94 135 -132 91 -57 177 -80 284 -75 49 1 87 0 85 -3 -7 -13 39 -18
114 -13 119 8 122 9 122 15 0 4 15 10 33 14 17 4 34 9 37 10 25 10 45 16 113
36 42 12 77 27 77 31 0 5 5 6 10 3 6 -3 10 -1 10 5 0 7 7 10 15 6 8 -3 15 -1
15 4 0 6 3 9 8 9 4 -1 10 0 15 1 4 1 10 3 15 4 4 1 26 14 49 29 24 15 47 27
53 27 5 0 10 5 10 11 0 5 5 7 10 4 6 -3 10 3 10 14 0 22 -14 28 -25 11 -4 -6
-10 -8 -15 -5 -5 3 -11 1 -15 -5 -4 -6 -11 -8 -16 -5 -5 4 -9 1 -9 -4 0 -6 -7
-11 -16 -11 -9 0 -13 5 -9 13 4 6 0 4 -8 -6 -8 -9 -21 -15 -29 -12 -9 4 -18
-1 -22 -12 -6 -15 -8 -15 -16 -3 -8 13 -10 12 -10 -2 0 -12 -7 -17 -22 -17
-13 1 -36 -3 -52 -10 -16 -6 -31 -10 -33 -7 -2 2 11 10 28 17 222 93 579 305
778 462 155 123 324 310 350 386 6 19 14 84 17 145 11 193 -8 221 -301 466
-665 556 -800 666 -1160 946 -299 233 -342 266 -540 407 -213 153 -206 151
-330 116z m78 -74 c-25 -18 -37 -22 -218 -87 -178 -63 -391 -134 -430 -142
-48 -11 -296 -87 -337 -103 -46 -19 -73 -12 -59 15 7 13 91 46 283 110 398
133 508 169 558 182 25 6 65 18 90 25 25 8 65 14 90 14 42 1 43 0 23 -14z
m174 -63 c54 -43 114 -89 133 -103 67 -46 160 -122 160 -130 0 -13 -53 -37
-184 -84 -66 -24 -206 -75 -310 -114 -104 -39 -193 -71 -198 -71 -5 0 -25 -7
-45 -15 l-36 -15 33 -35 c19 -19 38 -35 44 -35 5 0 23 -12 38 -27 l28 -27 57
19 c32 10 69 20 83 21 23 1 106 36 374 155 93 42 132 49 46 9 -72 -34 -83 -50
-34 -50 28 0 43 6 52 20 8 14 23 20 49 20 35 0 36 -1 17 -15 -10 -8 -27 -15
-37 -15 -10 0 -20 -7 -23 -15 -7 -17 -50 -20 -86 -6 -28 10 -48 -2 -84 -50
-31 -42 -30 -70 2 -109 44 -51 76 -62 180 -61 61 1 94 -2 94 -9 0 -6 7 -10 16
-8 10 2 19 -3 21 -9 6 -18 -22 -16 -36 1 -9 10 -20 12 -40 6 -54 -15 -71 -29
-70 -58 0 -15 3 -21 6 -14 9 23 30 13 26 -12 -3 -16 3 -32 19 -48 12 -12 23
-26 23 -30 0 -3 4 -10 9 -15 5 -4 7 -3 3 3 -4 6 6 10 26 10 18 -1 46 3 62 7
30 8 30 8 8 -8 -13 -9 -23 -23 -23 -31 0 -8 -4 -14 -8 -14 -5 0 -9 -7 -9 -15
0 -8 3 -13 5 -10 3 2 23 -11 45 -31 33 -31 44 -35 72 -30 39 8 53 -6 27 -25
-15 -13 -16 -12 -3 4 9 11 10 17 2 17 -16 0 -27 -33 -13 -38 7 -2 12 -9 12
-15 0 -6 12 -24 27 -40 19 -19 22 -26 10 -22 -9 4 -17 11 -17 16 0 4 -7 6 -16
2 -15 -6 -15 -7 0 -19 10 -6 13 -14 9 -17 -5 -3 -23 9 -41 28 -18 18 -29 36
-24 39 6 3 15 -1 22 -9 7 -8 20 -15 29 -15 9 0 3 8 -16 20 -36 22 -39 29 -20
50 6 8 2 6 -11 -5 -15 -12 -19 -21 -11 -25 7 -5 5 -10 -7 -14 -9 -3 -19 -4
-22 -1 -3 3 1 5 8 5 7 0 10 3 7 6 -3 4 -2 15 3 25 8 14 6 21 -12 30 -13 6 -20
8 -16 4 4 -5 3 -14 -3 -22 -9 -9 -8 -13 0 -13 6 0 11 5 11 12 0 6 3 9 6 6 12
-13 -28 -56 -58 -62 -40 -8 -45 -3 -19 23 25 25 27 54 6 71 -8 7 -12 17 -8 23
3 5 1 7 -4 4 -6 -4 -17 1 -24 10 -8 10 -9 14 -2 10 6 -4 15 -2 19 4 4 8 3 9
-4 5 -7 -4 -12 -2 -12 5 0 8 -4 8 -16 -2 -12 -10 -20 -10 -34 -1 -16 10 -18 9
-14 -3 4 -10 0 -15 -14 -15 -11 0 -29 -3 -39 -7 -11 -4 -7 3 10 16 38 31 35
62 -10 102 -21 18 -30 30 -20 26 19 -7 22 1 7 23 -8 11 -12 12 -18 3 -8 -13
-52 -7 -52 7 0 4 9 10 19 13 15 3 18 1 14 -12 -3 -11 1 -9 15 6 11 12 23 19
26 15 4 -3 4 1 0 11 -3 9 -10 17 -16 17 -5 0 -7 -4 -3 -9 3 -5 -7 -11 -22 -13
-20 -2 -38 5 -62 25 -25 21 -41 28 -63 25 -27 -4 -29 -3 -22 24 4 23 1 35 -18
55 -32 35 -66 47 -86 31 -10 -8 -13 -8 -9 -2 4 7 0 15 -9 18 -8 3 -12 2 -9 -4
3 -6 2 -10 -4 -10 -5 0 -12 6 -15 13 -5 9 -7 9 -12 0 -3 -7 -12 -9 -20 -6 -8
3 -25 -2 -39 -11 -13 -9 -31 -16 -39 -16 -27 0 -206 -63 -206 -72 0 -5 -4 -7
-8 -4 -5 3 -18 -3 -28 -13 -11 -9 -26 -15 -33 -13 -8 3 -11 0 -7 -6 3 -5 -5
-13 -19 -16 -14 -4 -25 -13 -25 -20 0 -8 -10 -16 -22 -19 -18 -5 -19 -8 -8
-22 11 -13 10 -15 -4 -9 -9 3 -16 15 -16 25 0 10 -4 19 -10 19 -5 0 -10 7 -10
15 0 19 -1 19 -49 -1 -22 -9 -43 -25 -46 -36 -6 -15 -36 -36 -65 -43 -3 0 -16
-7 -30 -15 -14 -8 -34 -13 -45 -12 -15 2 -16 1 -7 -6 11 -7 10 -10 -5 -14 -11
-3 -29 3 -42 13 l-22 18 28 14 c15 8 65 27 111 42 78 26 82 29 82 57 0 17 -10
39 -24 53 -28 28 -43 25 -162 -23 -60 -25 -69 -32 -77 -62 -7 -29 -5 -36 15
-52 20 -15 21 -19 8 -28 -21 -13 -53 -12 -72 3 -15 11 -138 202 -138 214 0 3
7 3 15 -1 26 -10 17 12 -43 102 -70 105 -126 202 -129 222 -1 8 -5 26 -9 38
-6 21 -4 23 17 20 17 -2 25 -10 27 -28 2 -14 48 -92 103 -174 55 -81 97 -151
93 -155 -4 -3 -9 0 -11 7 -6 15 -23 6 -23 -14 0 -9 10 -14 29 -14 16 0 34 -7
41 -15 7 -8 21 -15 31 -15 9 0 123 39 251 86 128 47 249 87 270 87 20 1 35 4
33 8 -3 3 155 66 350 139 195 73 354 134 352 135 -29 24 -274 221 -309 248
-47 37 -62 67 -34 67 8 0 59 -35 113 -78z m-73 -59 c23 -21 83 -72 134 -113
51 -41 92 -78 92 -81 0 -3 -24 -13 -52 -22 -29 -8 -141 -49 -248 -90 -107 -41
-269 -99 -360 -130 -91 -30 -244 -85 -340 -122 -164 -62 -176 -65 -188 -48
-71 94 -181 260 -179 268 2 5 21 15 43 22 21 6 226 75 454 154 452 154 580
197 594 198 5 1 27 -16 50 -36z m625 -359 c61 -13 109 -91 65 -108 -31 -12
-90 -5 -121 14 -25 15 -33 27 -33 49 0 44 27 57 89 45z m-824 -264 c-4 -6 -1
-18 6 -26 10 -12 14 -12 21 -2 5 8 6 0 2 -18 -5 -26 -1 -35 26 -57 38 -32 54
-33 104 -7 29 16 41 18 52 9 11 -9 14 -9 14 1 0 13 28 39 43 40 4 0 7 -7 7
-16 0 -11 8 -15 30 -12 20 2 35 -4 49 -19 l20 -21 -87 -34 c-92 -37 -111 -38
-130 -7 -11 17 -8 21 19 38 18 11 26 22 20 25 -6 4 -11 3 -11 -1 0 -5 -10 -13
-22 -18 -11 -6 -25 -21 -30 -33 -7 -20 -2 -30 27 -59 22 -22 42 -34 53 -31 20
6 47 -18 32 -27 -13 -8 -2 -35 27 -66 13 -14 21 -28 18 -31 -3 -3 12 -2 35 2
22 4 40 6 40 3 0 -2 10 2 23 8 22 12 22 12 2 -8 -11 -11 -27 -18 -35 -16 -11
4 -12 2 -3 -4 7 -5 11 -19 8 -30 -2 -16 8 -32 36 -57 21 -20 39 -43 39 -51 0
-8 9 -15 21 -15 16 0 19 4 14 23 -5 17 -4 19 4 7 9 -13 12 -13 23 -1 11 12 10
13 -2 6 -10 -5 -12 -5 -5 2 6 6 21 14 35 18 24 8 23 7 -8 -29 -17 -20 -32 -43
-32 -51 0 -20 67 -85 88 -85 15 0 15 -2 2 -10 -8 -6 -27 -7 -41 -4 -18 3 -28
0 -32 -10 -9 -23 -27 -20 -27 5 0 11 4 18 9 14 5 -3 13 0 17 6 4 7 3 9 -4 6
-5 -4 -29 9 -52 28 -23 19 -37 35 -32 35 6 0 14 -4 17 -10 3 -5 11 -10 17 -10
6 0 3 9 -7 20 -18 20 -18 21 1 14 18 -7 18 -6 -1 13 -12 12 -24 17 -29 12 -6
-5 -15 -4 -23 3 -11 9 -13 8 -11 -3 2 -8 -3 -13 -11 -11 -8 2 -11 -3 -8 -10 3
-9 -3 -14 -14 -14 -14 0 -18 5 -13 16 19 43 14 56 -43 115 -31 33 -54 53 -51
45 3 -8 -1 -21 -8 -28 -12 -11 -13 -7 -8 26 5 35 3 41 -27 66 -29 25 -39 27
-78 22 -38 -5 -42 -4 -29 6 9 7 20 25 23 39 5 20 -1 32 -27 58 -24 25 -27 30
-10 22 12 -6 22 -8 22 -3 0 15 -51 33 -73 26 -17 -5 -19 -3 -14 15 4 16 -4 32
-24 56 -26 29 -27 34 -10 30 11 -2 22 3 25 12 5 12 0 14 -23 11 -25 -4 -28 -2
-21 13 5 9 6 20 2 24 -4 5 -1 5 6 1 7 -4 10 -12 7 -17 -4 -5 -2 -9 3 -9 5 0
12 9 15 20 3 11 8 20 12 20 3 0 3 -5 0 -10z m-125 -76 c0 -8 -4 -12 -10 -9 -5
3 -10 1 -10 -4 0 -14 67 -14 75 0 8 12 47 -19 42 -34 -3 -9 -76 -39 -164 -69
-44 -15 -64 2 -60 50 2 29 7 37 30 43 15 4 29 3 33 -2 3 -5 0 -9 -7 -9 -7 0
-10 -2 -8 -5 7 -7 49 6 49 16 0 5 -7 6 -15 3 -8 -4 -15 -1 -15 6 0 6 4 9 9 6
4 -3 17 1 27 9 24 18 24 18 24 -1z m-160 -94 c0 -31 58 -82 91 -78 32 3 37 -8
14 -35 -15 -17 -13 -21 23 -57 36 -37 40 -38 78 -30 51 12 63 12 41 -1 -9 -5
-24 -23 -33 -40 -15 -29 -14 -31 20 -65 33 -33 39 -35 76 -29 26 4 40 3 40 -4
0 -6 -4 -11 -8 -11 -5 0 -14 -12 -20 -26 -14 -29 -7 -47 32 -83 23 -21 31 -23
81 -17 37 4 54 3 50 -4 -9 -14 -7 -14 84 26 65 28 85 33 97 23 8 -6 14 -18 14
-26 0 -8 3 -12 8 -10 4 3 13 -1 20 -9 10 -11 6 -16 -24 -29 -21 -8 -64 -27
-96 -42 -32 -14 -61 -23 -64 -20 -9 9 19 42 35 42 8 0 16 5 18 12 3 7 -3 9
-16 6 -13 -3 -21 -1 -21 6 0 7 5 9 12 5 7 -5 8 -3 3 6 -6 10 -3 12 13 8 12 -4
22 -2 22 3 0 15 -33 10 -65 -9 -45 -27 -65 -33 -59 -18 3 7 -2 13 -11 13 -8 0
-13 -2 -11 -4 2 -3 0 -18 -4 -34 -8 -26 -4 -35 27 -70 19 -21 44 -39 55 -39
10 0 17 -4 14 -9 -3 -4 -17 -7 -31 -5 -23 2 -24 0 -13 -14 10 -12 10 -14 1 -8
-8 4 -13 2 -13 -4 0 -7 -7 -5 -16 4 -8 9 -17 16 -20 16 -7 0 1 -25 11 -33 6
-5 3 -7 -6 -4 -9 3 -21 1 -26 -4 -5 -5 -9 9 -10 36 -1 30 2 43 9 39 7 -4 8 -2
4 4 -4 6 -14 8 -23 5 -13 -5 -15 -2 -10 11 4 9 3 15 -2 12 -5 -3 -14 1 -21 9
-7 8 -19 15 -28 15 -8 0 -12 3 -9 7 4 3 19 0 33 -8 23 -12 27 -11 40 5 15 21
8 44 -8 28 -13 -13 -38 -5 -57 17 -10 12 -15 13 -18 4 -9 -25 -33 -14 -33 15
0 15 -7 37 -15 48 -8 12 -11 24 -7 28 3 4 -1 4 -10 1 -9 -4 -19 -2 -22 3 -3 5
5 12 19 14 13 3 26 0 29 -6 2 -6 5 -3 5 6 1 15 -47 58 -65 58 -4 0 -16 -7 -26
-17 -17 -15 -18 -15 -18 15 0 51 -83 108 -118 80 -14 -12 -14 -10 1 12 9 13
17 32 17 41 0 29 -49 79 -78 80 -18 1 -21 3 -9 6 14 4 15 8 7 18 -8 10 -7 13
6 11 9 0 19 5 21 12 3 7 -4 12 -16 12 -12 0 -21 6 -21 16 0 9 5 12 12 8 7 -4
8 -3 4 4 -4 7 -15 12 -24 12 -11 0 -13 3 -6 8 6 4 10 19 10 34 -1 14 2 24 6
22 4 -3 8 -14 8 -24z m-53 -42 c25 -24 30 -50 11 -66 -18 -14 -192 -82 -211
-82 -18 0 -57 46 -57 66 0 19 36 41 122 75 88 34 105 35 135 7z m313 12 c0 -5
13 -7 32 -3 22 4 29 3 24 -5 -4 -7 -2 -12 3 -12 6 0 11 6 11 13 1 6 6 2 13
-11 7 -12 16 -19 21 -15 4 4 4 1 1 -7 -5 -15 -167 -80 -197 -80 -8 0 -23 9
-34 21 -18 20 -18 21 -1 34 13 9 15 15 6 20 -8 5 -2 12 17 20 21 8 31 9 36 1
5 -7 11 -7 20 3 11 12 10 12 -2 6 -13 -8 -13 -7 -1 8 14 18 51 23 51 7z m380
-11 c0 -5 -4 -7 -10 -4 -5 3 -10 2 -10 -4 0 -6 12 -8 30 -4 22 4 36 0 52 -13
21 -19 21 -19 9 4 -12 22 -11 23 9 17 15 -5 20 -4 16 4 -8 13 -4 14 18 5 9 -3
16 -10 16 -16 0 -5 -4 -6 -10 -3 -5 3 -10 1 -10 -5 0 -6 -4 -8 -10 -5 -5 3
-10 1 -10 -5 0 -7 8 -9 23 -4 44 13 6 -9 -77 -46 l-85 -38 -22 24 c-12 13 -19
30 -16 38 4 9 3 15 -1 15 -16 -3 -23 2 -17 11 4 7 14 6 28 -2 20 -10 21 -10 8
5 -12 15 -11 17 3 17 9 0 16 -4 16 -10 0 -5 5 -10 11 -10 5 0 7 5 3 11 -3 6 0
15 7 20 19 12 29 11 29 -2z m-1080 -38 c39 -10 62 -8 67 5 3 8 9 12 14 9 15
-10 -2 -34 -21 -30 -10 2 -21 -3 -24 -11 -3 -9 1 -14 12 -14 21 0 46 -36 32
-45 -6 -4 -8 -11 -4 -16 3 -5 10 -7 15 -4 5 4 9 -8 9 -26 0 -18 3 -29 7 -25
11 11 12 38 2 58 -11 20 -2 23 21 8 8 -5 10 -10 4 -10 -9 0 -10 -11 -5 -51 1
-4 10 -9 22 -12 13 -4 18 -10 13 -18 -4 -8 -3 -10 4 -5 6 4 9 14 6 24 -5 15
-5 15 6 -1 6 -9 8 -22 4 -29 -5 -7 -3 -8 5 -3 8 5 24 -6 44 -30 29 -35 33 -37
78 -33 l48 5 -25 -19 c-37 -30 -32 -73 12 -115 31 -28 39 -32 52 -21 13 11 15
10 9 -5 -5 -13 -3 -17 5 -15 7 3 13 11 13 18 0 8 16 18 35 23 19 5 38 14 42
20 4 7 8 8 8 4 0 -5 15 1 34 13 22 13 37 17 41 10 3 -5 -4 -15 -17 -20 -23
-10 -23 -10 2 -5 75 18 95 17 114 -4 10 -11 16 -26 13 -34 -6 -17 -143 -66
-177 -63 -30 1 -50 13 -50 28 0 6 8 4 18 -5 21 -19 38 -11 21 10 -9 9 -8 13 0
13 6 0 15 -10 20 -22 5 -13 10 -17 15 -10 3 6 2 13 -4 17 -15 10 -12 23 8 28
9 2 2 3 -16 1 -18 -1 -46 -10 -62 -18 -17 -8 -30 -10 -30 -5 0 5 -9 4 -19 -3
-15 -9 -23 -9 -34 0 -18 15 -38 8 -55 -19 -8 -12 -9 -19 -4 -15 10 6 35 -41
27 -54 -3 -4 2 -13 10 -20 8 -7 12 -16 9 -21 -3 -5 -3 -9 0 -9 14 0 14 20 0
34 -9 10 -11 16 -4 16 7 0 3 14 -10 35 -12 19 -17 35 -11 35 6 0 11 -7 11 -15
0 -8 9 -15 20 -15 25 0 26 17 3 23 -14 4 -12 5 5 6 17 1 22 -4 22 -23 0 -14
12 -39 26 -56 25 -29 31 -31 80 -28 30 2 54 6 54 9 0 12 49 28 55 19 4 -6 0
-10 -8 -10 -8 0 -20 -6 -26 -14 -8 -9 4 -7 33 7 25 11 43 24 41 28 -3 4 3 13
13 20 16 13 16 13 2 -5 -14 -18 -14 -19 10 -12 14 5 41 10 62 13 31 4 39 1 53
-21 20 -31 10 -51 -31 -59 -13 -2 -22 -2 -19 1 3 3 -3 14 -12 24 -20 22 -5 45
22 34 14 -5 15 -9 5 -21 -7 -9 -11 -17 -9 -20 3 -2 10 4 16 15 17 26 -10 49
-38 32 -10 -7 -24 -12 -30 -12 -6 0 -25 -6 -42 -14 -71 -32 -110 -46 -118 -40
-5 3 -12 -2 -15 -10 -3 -9 -10 -14 -14 -11 -4 3 -4 -11 0 -31 10 -43 54 -92
87 -96 13 -2 22 -6 21 -9 -2 -3 3 -13 11 -22 11 -14 11 -18 -3 -23 -13 -5 -14
-9 -5 -20 9 -11 8 -14 -1 -14 -8 0 -11 -9 -8 -25 5 -22 2 -25 -15 -19 -13 4
-17 2 -13 -5 4 -6 11 -11 17 -11 5 0 18 -9 29 -20 14 -14 16 -20 6 -20 -8 0
-16 7 -20 15 -3 8 -10 15 -16 15 -6 0 -8 -5 -5 -10 10 -16 0 -12 -25 10 -13
11 -18 20 -12 20 7 0 -1 12 -16 27 -26 25 -57 67 -118 157 -12 17 -20 34 -18
37 2 4 -3 10 -12 13 -9 4 -14 13 -10 21 3 8 0 15 -7 15 -7 0 -27 22 -44 48
-18 26 -53 76 -79 112 -69 98 -268 400 -293 445 -18 32 -19 36 -4 20 10 -11
25 -22 33 -24z m347 -90 c-4 -18 -3 -19 35 -5 62 22 118 8 106 -26 -5 -15
-175 -80 -210 -80 -35 0 -47 33 -22 61 11 12 13 19 5 19 -7 0 -9 5 -5 12 5 7
11 5 21 -8 10 -13 14 -14 11 -4 -1 8 2 16 7 17 6 0 9 -3 7 -9 -1 -5 3 -8 10
-5 7 2 12 10 10 17 -2 7 3 17 10 21 19 12 21 11 15 -10z m436 -8 c21 8 62 17
50 11 -24 -11 -13 -24 15 -18 16 3 35 -1 47 -9 19 -15 19 -15 -5 -25 -14 -6
-53 -22 -88 -36 -72 -30 -104 -33 -122 -11 -19 23 -5 44 42 64 26 11 37 20 30
25 -7 4 -12 2 -12 -3 0 -6 -7 -11 -15 -11 -24 0 -17 15 13 26 21 8 28 7 30 -4
2 -7 9 -12 15 -9z m1162 -104 c42 -37 46 -75 13 -106 -38 -35 -108 -64 -165
-70 -49 -5 -56 -3 -82 21 -33 32 -44 69 -27 92 13 17 181 93 208 94 10 0 33
-14 53 -31z m-1517 -15 c-48 -25 -31 -35 25 -14 82 32 137 24 137 -20 0 -17
-171 -90 -212 -90 -45 0 -68 52 -28 65 11 3 20 13 20 21 0 14 56 54 75 54 6
-1 -2 -8 -17 -16z m588 -11 c-3 -4 -1 -12 5 -19 16 -20 -173 -107 -206 -94
-36 14 -43 49 -14 71 19 15 21 21 11 28 -11 6 -9 10 7 14 13 3 19 1 14 -5 -7
-12 12 -9 102 16 34 9 56 10 68 4 10 -5 16 -12 13 -15z m613 -119 c44 -36 43
-82 -1 -120 -44 -37 -113 -65 -174 -71 -49 -5 -52 -4 -78 30 -47 62 -36 84 69
139 105 54 141 59 184 22z m486 -5 c48 -42 49 -87 2 -123 -47 -36 -126 -67
-175 -69 -39 -2 -48 2 -78 36 -26 28 -34 45 -32 65 3 23 16 34 98 74 52 26
107 47 122 47 17 1 41 -11 63 -30z m-819 -153 c51 -51 47 -86 -13 -130 -57
-42 -142 -76 -187 -76 -53 0 -112 84 -88 126 12 21 197 112 231 113 14 1 36
-12 57 -33z m496 -3 c36 -35 39 -90 6 -121 -27 -24 -139 -78 -185 -87 -27 -5
-37 -1 -72 31 -32 28 -41 43 -41 69 0 40 6 45 117 100 100 50 130 51 175 8z
m510 -13 c34 -34 39 -44 33 -67 -3 -16 -16 -38 -27 -50 -31 -33 -126 -76 -180
-81 -45 -4 -50 -2 -88 36 -44 43 -51 79 -22 104 34 31 178 97 211 98 26 0 42
-9 73 -40z m-858 -160 c45 -50 46 -82 5 -119 -37 -34 -119 -76 -183 -93 -44
-12 -47 -11 -76 17 -39 37 -59 98 -40 121 21 24 201 113 231 113 19 1 38 -11
63 -39z m519 -8 c48 -47 50 -82 5 -125 -45 -41 -151 -89 -200 -91 -35 -1 -45
4 -74 38 -37 43 -46 94 -20 115 8 7 57 34 110 61 108 55 122 55 179 2z m529
-9 c48 -46 49 -79 7 -127 -34 -40 -116 -82 -177 -92 -38 -6 -43 -4 -91 41 -55
51 -59 64 -36 109 8 15 15 36 15 45 0 9 3 12 8 6 12 -17 35 -17 29 0 -4 9 -1
15 9 15 8 0 12 -4 9 -10 -3 -5 -1 -10 6 -10 7 0 9 8 6 21 -4 15 -2 18 7 10 9
-8 26 -4 62 14 62 32 96 27 146 -22z m-884 -170 c43 -48 44 -93 2 -131 -42
-39 -155 -94 -205 -99 -39 -5 -44 -2 -73 33 -41 50 -51 99 -26 124 11 10 64
41 119 69 115 59 133 60 183 4z m540 -18 c36 -37 42 -49 36 -72 -14 -65 -152
-153 -241 -153 -29 0 -42 8 -74 42 -39 43 -50 85 -30 116 4 8 55 38 112 68
122 63 135 63 197 -1z m-536 -171 c-2 -11 1 -15 5 -9 13 17 62 35 95 35 24 0
40 -10 70 -42 53 -58 53 -97 -3 -150 -22 -21 -44 -36 -50 -33 -5 4 -9 1 -9 -4
0 -6 -9 -11 -20 -11 -11 0 -20 -4 -20 -10 0 -5 -7 -6 -17 -3 -10 4 -14 2 -10
-4 4 -6 -10 -15 -32 -22 -66 -19 -86 -15 -125 31 -43 50 -56 101 -32 127 9 10
14 25 10 35 -3 9 -1 16 4 16 6 0 13 -8 15 -17 3 -11 5 -7 6 10 1 24 4 26 20
18 16 -9 18 -8 14 12 -4 19 -3 20 7 5 16 -26 43 -24 35 2 -5 14 -2 20 10 20 9
0 13 5 9 11 -4 7 -1 10 7 7 8 -3 13 -14 11 -24z"/>
<path d="M1675 2451 c-83 -30 -137 -61 -132 -75 3 -8 0 -19 -6 -25 -20 -20 41
-62 80 -57 32 5 146 51 171 69 17 13 15 48 -4 75 -14 20 -17 21 -27 8 -18 -23
-178 -79 -190 -67 -11 11 68 51 142 71 22 6 41 13 41 15 0 9 -25 4 -75 -14z"/>
</g>
</svg>
